<svg xmlns="http://www.w3.org/2000/svg" width="57" height="18" viewBox="0 0 57 18" fill="none">
  <path d="M26.3666 4.25654C27.4617 4.25654 28.4411 4.49381 29.305 4.97239C30.1689 5.44895 30.8462 6.12423 31.337 6.99419C31.8297 7.86619 32.0751 8.86997 32.0751 10.0076C32.0751 11.1453 31.8297 12.1532 31.337 13.0312C30.8462 13.9073 30.1689 14.5866 29.305 15.0632C28.4411 15.5418 27.4617 15.779 26.3666 15.779C24.8498 15.779 23.6493 15.274 22.7631 14.2621V17.6913H20.1309V4.38225H22.6373V5.85653C23.0733 5.32319 23.6108 4.92371 24.2495 4.65603C24.8883 4.38835 25.594 4.25654 26.3666 4.25654ZM16.6753 12.4979C16.6753 12.6642 16.7402 12.8244 16.8578 12.94C16.9755 13.0576 17.1337 13.1245 17.3 13.1245C17.4338 13.1245 17.5372 13.1245 17.5372 13.1245L17.5189 15.631H16.6672C15.2173 15.631 14.0411 14.4568 14.0411 13.0069C14.0411 9.10318 14.0411 2.2185 14.0411 2.2185L16.6753 0C16.6753 0 16.6753 9.88797 16.6753 12.4979ZM2.50645 6.02486C3.26488 4.84462 4.59928 4.25654 6.50955 4.25654V6.76299C6.28445 6.7204 6.08166 6.70016 5.89712 6.70016C4.87304 6.70016 4.07195 6.99824 3.49603 7.59444C2.92011 8.19064 2.6322 9.05249 2.6322 10.1759V15.631H0V4.38225H2.50645V6.02486ZM8.74221 4.38225H11.3765V15.631H8.74221V4.38225ZM34.5816 4.38225H37.2159V15.631H34.5816V4.38225ZM56.86 15.631L49.4197 11.7354L44.2769 15.631H39.1322L46.8849 9.92246L39.4688 4.38225H44.6481L49.5312 8.06899L56.6714 4.38225L51.9911 9.87988L56.86 15.631ZM26.0706 13.526C27.0399 13.526 27.8368 13.2016 28.4635 12.5567C29.088 11.9098 29.4004 11.0601 29.4004 10.0076C29.4004 8.95311 29.088 8.10346 28.4635 7.45859C27.8368 6.81169 27.0399 6.48925 26.0706 6.48925C25.4399 6.48925 24.87 6.63321 24.3651 6.92117C23.8601 7.20913 23.4586 7.61878 23.1646 8.15211C22.8685 8.68748 22.7205 9.30394 22.7205 10.0076C22.7205 10.7093 22.8685 11.3278 23.1646 11.8611C23.4586 12.3945 23.8601 12.8061 24.3651 13.0941C24.87 13.382 25.4399 13.526 26.0706 13.526ZM39.8684 7.4322C39.8035 7.38759 39.7203 7.38149 39.6513 7.41799C39.5824 7.45247 39.5377 7.5255 39.5377 7.60256C39.5377 8.60231 39.5377 11.1858 39.5377 12.1917C39.5377 12.2687 39.5824 12.3418 39.6513 12.3762C39.7223 12.4127 39.8054 12.4066 39.8703 12.36C40.5842 11.8429 42.2653 10.6302 42.9852 10.109C43.0622 10.0543 43.1068 9.96504 43.1068 9.86973C43.1068 9.77442 43.0602 9.68318 42.9811 9.62842C42.2612 9.11942 40.5802 7.93512 39.8684 7.4322Z" fill="#FF8015"/>
</svg>