<?xml version="1.0" encoding="UTF-8" standalone="no"?>
<!DOCTYPE svg PUBLIC "-//W3C//DTD SVG 1.1//EN" "http://www.w3.org/Graphics/SVG/1.1/DTD/svg11.dtd">
<svg width="100%" height="100%" viewBox="0 0 558 166" version="1.1" xmlns="http://www.w3.org/2000/svg" xmlns:xlink="http://www.w3.org/1999/xlink" xml:space="preserve" xmlns:serif="http://www.serif.com/" style="fill-rule:evenodd;clip-rule:evenodd;stroke-linejoin:round;stroke-miterlimit:2;">
    <g transform="matrix(1,0,0,1,-5022.31,-324.106)">
        <g transform="matrix(1,0,0,1,4444.55,6.82121e-13)">
            <g>
                <g transform="matrix(2.54039,0,0,2.54039,-3126.67,-107.565)">
                    <path d="M1553.71,176.69L1538.71,211.69L1528.96,211.69L1514.01,176.69L1524.71,176.69L1534.21,199.49L1543.91,176.69L1553.71,176.69ZM1555.76,176.69L1565.66,176.69L1565.66,211.69L1555.76,211.69L1555.76,176.69ZM1588.01,202.39L1582.61,202.39L1582.61,211.69L1572.71,211.69L1572.71,176.69L1588.71,176.69C1591.88,176.69 1594.63,177.215 1596.96,178.265C1599.3,179.315 1601.1,180.815 1602.36,182.765C1603.63,184.715 1604.26,187.006 1604.26,189.64C1604.26,192.173 1603.67,194.381 1602.49,196.265C1601.31,198.148 1599.61,199.623 1597.41,200.69L1604.96,211.69L1594.36,211.69L1588.01,202.39ZM1594.26,189.64C1594.26,188.006 1593.75,186.74 1592.71,185.84C1591.68,184.94 1590.15,184.49 1588.11,184.49L1582.61,184.49L1582.61,194.74L1588.11,194.74C1590.15,194.74 1591.68,194.298 1592.71,193.415C1593.75,192.531 1594.26,191.273 1594.26,189.64ZM1609.71,176.69L1619.61,176.69L1619.61,211.69L1609.71,211.69L1609.71,176.69ZM1626.66,176.69L1643.21,176.69C1647.05,176.69 1650.45,177.406 1653.41,178.84C1656.38,180.273 1658.68,182.306 1660.31,184.94C1661.95,187.573 1662.76,190.656 1662.76,194.19C1662.76,197.723 1661.95,200.806 1660.31,203.44C1658.68,206.073 1656.38,208.106 1653.41,209.54C1650.45,210.973 1647.05,211.69 1643.21,211.69L1626.66,211.69L1626.66,176.69ZM1642.81,203.79C1645.81,203.79 1648.22,202.94 1650.04,201.24C1651.86,199.54 1652.76,197.19 1652.76,194.19C1652.76,191.19 1651.86,188.84 1650.04,187.14C1648.22,185.44 1645.81,184.59 1642.81,184.59L1636.56,184.59L1636.56,203.79L1642.81,203.79ZM1667.96,176.69L1677.86,176.69L1677.86,211.69L1667.96,211.69L1667.96,176.69ZM1518.95,231.023C1517.98,231.023 1517.05,230.886 1516.15,230.612C1515.25,230.338 1514.54,229.975 1514.01,229.522L1514.82,227.717C1515.33,228.122 1515.96,228.453 1516.7,228.709C1517.45,228.965 1518.19,229.093 1518.95,229.093C1519.88,229.093 1520.57,228.944 1521.03,228.647C1521.49,228.349 1521.72,227.955 1521.72,227.467C1521.72,227.11 1521.59,226.815 1521.33,226.582C1521.08,226.35 1520.75,226.168 1520.36,226.037C1519.96,225.906 1519.43,225.757 1518.75,225.59C1517.8,225.364 1517.02,225.138 1516.43,224.911C1515.85,224.685 1515.34,224.33 1514.92,223.848C1514.49,223.365 1514.28,222.713 1514.28,221.891C1514.28,221.2 1514.47,220.571 1514.84,220.005C1515.22,219.439 1515.79,218.99 1516.54,218.656C1517.3,218.322 1518.23,218.156 1519.32,218.156C1520.08,218.156 1520.83,218.251 1521.57,218.442C1522.31,218.632 1522.95,218.906 1523.49,219.264L1522.75,221.069C1522.2,220.747 1521.63,220.503 1521.04,220.336C1520.44,220.169 1519.86,220.086 1519.3,220.086C1518.39,220.086 1517.7,220.241 1517.26,220.551C1516.81,220.86 1516.59,221.271 1516.59,221.784C1516.59,222.141 1516.71,222.433 1516.97,222.659C1517.23,222.886 1517.55,223.065 1517.94,223.196C1518.34,223.327 1518.87,223.476 1519.55,223.642C1520.48,223.857 1521.25,224.08 1521.84,224.313C1522.44,224.545 1522.95,224.899 1523.37,225.376C1523.79,225.853 1524,226.496 1524,227.306C1524,227.997 1523.82,228.623 1523.44,229.183C1523.07,229.743 1522.5,230.189 1521.73,230.523C1520.97,230.857 1520.04,231.023 1518.95,231.023ZM1539.3,231.023C1538.03,231.023 1536.88,230.746 1535.85,230.192C1534.83,229.638 1534.02,228.87 1533.44,227.887C1532.86,226.904 1532.56,225.805 1532.56,224.59C1532.56,223.374 1532.86,222.275 1533.44,221.292C1534.02,220.309 1534.83,219.541 1535.85,218.987C1536.88,218.433 1538.03,218.156 1539.3,218.156C1540.58,218.156 1541.73,218.433 1542.75,218.987C1543.78,219.541 1544.58,220.306 1545.16,221.283C1545.75,222.26 1546.04,223.362 1546.04,224.59C1546.04,225.817 1545.75,226.919 1545.16,227.896C1544.58,228.873 1543.78,229.638 1542.75,230.192C1541.73,230.746 1540.58,231.023 1539.3,231.023ZM1539.3,228.986C1540.14,228.986 1540.89,228.798 1541.55,228.423C1542.22,228.048 1542.75,227.524 1543.13,226.85C1543.51,226.177 1543.7,225.424 1543.7,224.59C1543.7,223.756 1543.51,223.002 1543.13,222.329C1542.75,221.656 1542.22,221.131 1541.55,220.756C1540.89,220.381 1540.14,220.193 1539.3,220.193C1538.47,220.193 1537.72,220.381 1537.05,220.756C1536.38,221.131 1535.86,221.656 1535.48,222.329C1535.1,223.002 1534.9,223.756 1534.9,224.59C1534.9,225.424 1535.1,226.177 1535.48,226.85C1535.86,227.524 1536.38,228.048 1537.05,228.423C1537.72,228.798 1538.47,228.986 1539.3,228.986ZM1555.65,218.334L1557.98,218.334L1557.98,228.879L1564.52,228.879L1564.52,230.845L1555.65,230.845L1555.65,218.334ZM1578.71,231.023C1576.98,231.023 1575.63,230.538 1574.67,229.567C1573.7,228.596 1573.22,227.205 1573.22,225.394L1573.22,218.334L1575.55,218.334L1575.55,225.304C1575.55,227.759 1576.61,228.986 1578.73,228.986C1580.84,228.986 1581.89,227.759 1581.89,225.304L1581.89,218.334L1584.18,218.334L1584.18,225.394C1584.18,227.205 1583.7,228.596 1582.74,229.567C1581.78,230.538 1580.44,231.023 1578.71,231.023ZM1596.88,220.3L1592.74,220.3L1592.74,218.334L1603.36,218.334L1603.36,220.3L1599.21,220.3L1599.21,230.845L1596.88,230.845L1596.88,220.3ZM1612.26,218.334L1614.58,218.334L1614.58,230.845L1612.26,230.845L1612.26,218.334ZM1630.95,231.023C1629.67,231.023 1628.52,230.746 1627.5,230.192C1626.48,229.638 1625.67,228.87 1625.09,227.887C1624.5,226.904 1624.21,225.805 1624.21,224.59C1624.21,223.374 1624.5,222.275 1625.09,221.292C1625.67,220.309 1626.48,219.541 1627.5,218.987C1628.52,218.433 1629.67,218.156 1630.95,218.156C1632.22,218.156 1633.37,218.433 1634.4,218.987C1635.42,219.541 1636.23,220.306 1636.81,221.283C1637.39,222.26 1637.69,223.362 1637.69,224.59C1637.69,225.817 1637.39,226.919 1636.81,227.896C1636.23,228.873 1635.42,229.638 1634.4,230.192C1633.37,230.746 1632.22,231.023 1630.95,231.023ZM1630.95,228.986C1631.78,228.986 1632.53,228.798 1633.2,228.423C1633.87,228.048 1634.39,227.524 1634.77,226.85C1635.15,226.177 1635.35,225.424 1635.35,224.59C1635.35,223.756 1635.15,223.002 1634.77,222.329C1634.39,221.656 1633.87,221.131 1633.2,220.756C1632.53,220.381 1631.78,220.193 1630.95,220.193C1630.12,220.193 1629.36,220.381 1628.7,220.756C1628.03,221.131 1627.51,221.656 1627.12,222.329C1626.74,223.002 1626.55,223.756 1626.55,224.59C1626.55,225.424 1626.74,226.177 1627.12,226.85C1627.51,227.524 1628.03,228.048 1628.7,228.423C1629.36,228.798 1630.12,228.986 1630.95,228.986ZM1658.42,218.334L1658.42,230.845L1656.51,230.845L1649.61,222.373L1649.61,230.845L1647.3,230.845L1647.3,218.334L1649.21,218.334L1656.11,226.806L1656.11,218.334L1658.42,218.334ZM1672.81,231.023C1671.84,231.023 1670.91,230.886 1670.01,230.612C1669.11,230.338 1668.4,229.975 1667.87,229.522L1668.68,227.717C1669.19,228.122 1669.82,228.453 1670.56,228.709C1671.31,228.965 1672.06,229.093 1672.81,229.093C1673.74,229.093 1674.43,228.944 1674.89,228.647C1675.35,228.349 1675.58,227.955 1675.58,227.467C1675.58,227.11 1675.45,226.815 1675.19,226.582C1674.93,226.35 1674.61,226.168 1674.22,226.037C1673.82,225.906 1673.29,225.757 1672.61,225.59C1671.65,225.364 1670.88,225.138 1670.29,224.911C1669.7,224.685 1669.2,224.33 1668.78,223.848C1668.35,223.365 1668.14,222.713 1668.14,221.891C1668.14,221.2 1668.33,220.571 1668.7,220.005C1669.08,219.439 1669.64,218.99 1670.4,218.656C1671.16,218.322 1672.08,218.156 1673.18,218.156C1673.94,218.156 1674.69,218.251 1675.43,218.442C1676.17,218.632 1676.81,218.906 1677.35,219.264L1676.61,221.069C1676.06,220.747 1675.49,220.503 1674.9,220.336C1674.3,220.169 1673.72,220.086 1673.16,220.086C1672.25,220.086 1671.56,220.241 1671.12,220.551C1670.67,220.86 1670.45,221.271 1670.45,221.784C1670.45,222.141 1670.57,222.433 1670.83,222.659C1671.09,222.886 1671.41,223.065 1671.8,223.196C1672.2,223.327 1672.73,223.476 1673.41,223.642C1674.34,223.857 1675.11,224.08 1675.7,224.313C1676.3,224.545 1676.81,224.899 1677.23,225.376C1677.65,225.853 1677.86,226.496 1677.86,227.306C1677.86,227.997 1677.67,228.623 1677.3,229.183C1676.92,229.743 1676.36,230.189 1675.59,230.523C1674.83,230.857 1673.9,231.023 1672.81,231.023Z" style="fill:rgb(52,139,6);"/>
                </g>
                <g transform="matrix(0.528157,0,0,0.528157,340.217,203.778)">
                    <g transform="matrix(1,0,0,1,-619.24,-199.394)">
                        <path d="M1105.39,430.494C1105.39,430.494 1096.19,441.816 1105.89,478.744C1115.6,515.671 1175.87,566.282 1194.65,588.185C1213.42,610.088 1224.78,632.238 1225.93,660.3C1227.08,688.361 1196.43,739.798 1196.43,739.798C1196.43,739.798 1196.86,705.221 1188.19,685.427C1179.52,665.632 1136.2,618.515 1136.2,618.515C1136.2,618.515 1068.47,556.736 1069.01,508.693C1069.55,460.65 1105.39,430.494 1105.39,430.494Z" style="fill:url(#_Linear1);"/>
                    </g>
                    <g transform="matrix(1,0,0,1,-619.24,-199.394)">
                        <path d="M1217.87,489.367C1217.87,489.367 1198.03,524.476 1199.19,553.863C1200.35,583.251 1224.38,590.185 1233.26,620.455C1242.14,650.726 1238.86,662.516 1238.86,662.516C1238.86,662.516 1258.86,629.888 1260.58,598.239C1263.01,553.53 1244.19,542.194 1233.22,524.255C1228.38,516.345 1217.87,489.367 1217.87,489.367Z" style="fill:url(#_Linear2);"/>
                    </g>
                    <g transform="matrix(1,0,0,1,-619.24,-199.394)">
                        <path d="M1248.44,427.221C1248.44,427.221 1228.01,455.308 1230.09,482.751C1232.17,510.193 1263.18,532.089 1268.85,554.184C1274.51,576.279 1270.51,597.91 1270.51,597.91C1270.51,597.91 1299.2,550.76 1296.79,520.173C1293.34,476.327 1273.6,482.135 1259.12,454.121C1254.87,445.892 1248.44,427.221 1248.44,427.221Z" style="fill:url(#_Linear3);"/>
                    </g>
                </g>
            </g>
        </g>
    </g>
    <defs>
        <linearGradient id="_Linear1" x1="0" y1="0" x2="1" y2="0" gradientUnits="userSpaceOnUse" gradientTransform="matrix(-182.241,85.3444,-85.3444,-182.241,1296.94,512.565)"><stop offset="0" style="stop-color:rgb(197,237,0);stop-opacity:1"/><stop offset="1" style="stop-color:rgb(52,139,6);stop-opacity:1"/></linearGradient>
        <linearGradient id="_Linear2" x1="0" y1="0" x2="1" y2="0" gradientUnits="userSpaceOnUse" gradientTransform="matrix(-182.241,85.3444,-85.3444,-182.241,1296.94,512.565)"><stop offset="0" style="stop-color:rgb(197,237,0);stop-opacity:1"/><stop offset="1" style="stop-color:rgb(52,139,6);stop-opacity:1"/></linearGradient>
        <linearGradient id="_Linear3" x1="0" y1="0" x2="1" y2="0" gradientUnits="userSpaceOnUse" gradientTransform="matrix(-182.241,85.3444,-85.3444,-182.241,1296.94,512.565)"><stop offset="0" style="stop-color:rgb(197,237,0);stop-opacity:1"/><stop offset="1" style="stop-color:rgb(52,139,6);stop-opacity:1"/></linearGradient>
    </defs>
</svg>
